<svg xmlns="http://www.w3.org/2000/svg" viewBox="829.855 145.42000000000002 210 170" preserveAspectRatio="xMidYMid slice" role="img" aria-label="Map showing Iran">
<!-- Natural Earth public-domain map data -->
<g fill="#d5e4eb" stroke="#f8fbfc" stroke-width="1.1" stroke-linejoin="round" vector-effect="non-scaling-stroke"><path d="M1069.44 163.14L1066.4 165.8L1063.07 166.18L1062.88 170.19L1060.66 172L1052.72 170.68L1049.84 177.84L1047.79 178.73L1039.86 180.33L1043.46 187.28L1040.72 188.32L1041.04 190.6L1038.57 190.01L1036.57 188.58L1030.63 188.16L1024 188.05L1022.55 188.49L1016.85 186.81L1014.58 187.63L1013.96 190L1007.38 188.62L1004.75 189.18L1003.85 190.94L1001.56 191.67L996.28 194.46L994.53 197.33L993.04 197.35L991.94 195.46L986.86 195.33L986.04 192.05L984.09 192.02L984.39 188.01L979.6 185.09L972.74 185.4L968.05 185.98L964.23 182.38L960.96 180.86L954.76 178L954.01 177.65L943.72 180.02L943.87 194.77L941.82 194.96L939.02 191.82L936.32 190.7L931.78 191.54L930.01 192.87L929.79 191.89L930.77 190.22L930.01 188.83L925.37 187.47L923.57 183.88L921.36 182.86L921.22 181.56L925.11 181.94L925.27 179.02L928.67 178.37L932.16 178.96L932.88 175.06L932.17 172.59L928.17 172.78L924.77 171.81L920.14 173.56L916.4 174.4L914.37 173.76L914.78 171.7L912.23 169.02L909.26 169.14L905.87 166.42L908.17 163.39L907.01 162.58L910.2 158.18L914.31 160.5L914.81 157.58L923.07 153.23L929.31 153.13L938.13 155.9L942.87 157.51L947.11 155.83L953.45 155.75L958.57 157.82L959.73 156.63L965.35 156.8L966.35 154.91L959.87 152.16L963.71 150.21L962.96 149.12L966.8 148.08L963.91 145.34L965.75 143.97L980.71 142.58L982.67 141.59L992.68 140.12L996.27 138.46L1003.46 139.32L1004.72 143.47L1008.9 142.49L1014.03 143.86L1013.7 146.04L1017.54 145.81L1027.56 142.04L1026.1 143.29L1031.2 146.38L1040.14 156.54L1042.27 154.45L1047.78 156.75L1053.53 155.72L1055.74 156.44L1057.67 158.75L1060.46 159.53L1062.17 161.23L1067.32 160.69L1069.44 163.14Z"/><path d="M943.87 194.77L943.72 180.02L954.01 177.65L954.76 178L960.96 180.86L964.23 182.38L968.05 185.98L972.74 185.4L979.6 185.09L984.39 188.01L984.09 192.02L986.04 192.05L986.86 195.33L991.94 195.46L993.04 197.35L994.53 197.33L996.28 194.46L1001.56 191.67L1003.85 190.94L1005.04 191.33L1001.68 193.92L1004.63 195.43L1007.48 194.43L1012.22 196.54L1007.1 199.42L1004.06 199.02L1002.41 199.13L1001.83 198.01L1002.67 196.16L997.32 197.09L996.05 199.66L994.15 201.87L990.81 201.68L989.77 203.44L992.7 204.39L993.57 207.37L991.32 211.42L988.3 210.58L986.07 210.55L986.18 208.1L980.86 206.39L976.68 204.43L974.07 202.55L969.5 199.78L967.53 195.66L966.19 194.93L961.86 195.12L960.33 194.3L959.91 191.11L954.52 188.99L951.15 191.32L947.73 192.7L948.39 194.71L943.87 194.77Z"/><path d="M886.34 366.73L883.97 363.43L883.92 348.86L887.42 344.32L888.51 343.06L891.08 342.99L894.64 340.17L899.85 339.99L911.16 327.99L913.95 324.65L915.75 322.19L915.75 320.11L915.75 316.07L915.77 314.42L915.79 314.36L915.79 314.36L917.07 314.28L918.91 313.68L921.04 313.28L922.93 311.91L924.44 311.9L924.54 313.01L924.17 315.33L924.18 317.44L923.34 318.88L922.21 323.21L920.28 327.67L917.81 332.78L914.38 338.64L910.96 343.12L906.26 348.58L902.26 351.82L896.27 355.79L892.54 358.83L888.17 363.68L887.24 365.79L886.34 366.73Z"/><path d="M818.27 327.08L815.22 325.33L813.84 324.18L813.58 322.94L814.23 321.28L814.22 319.64L811.91 317.14L811.46 315.43L811.5 314.46L810.03 313.28L809.99 310.96L809.15 309.42L807.75 309.65L808.15 308.18L809.19 306.51L808.73 304.85L810.05 303.63L809.21 302.69L810.27 300.22L812.1 297.28L815.55 297.56L815.35 281.68L815.4 280L820 279.99L820 272L836.08 272L851.6 272L867.46 272L868.75 275.92L867.88 276.65L868.46 280.77L869.93 285.54L871.45 286.53L873.64 288.01L871.62 290.29L868.67 290.95L867.41 292.17L867.02 294.83L865.29 300.71L865.72 302.31L865.08 305.75L863.45 309.69L861.04 311.67L859.33 314.72L858.92 316.36L857.03 317.48L855.85 321.67L855.9 325.26L855.85 322.14L855.3 322.06L855.37 320.07L854.89 318.7L852.83 317.12L852.35 314.24L852.83 311.28L850.97 311.01L850.7 311.9L848.3 312.11L849.26 313.27L849.6 315.68L847.4 317.87L845.41 320.76L843.35 321.17L839.99 318.84L838.48 319.66L838.06 320.83L836 321.58L835.87 322.41L831.88 322.41L831.33 321.58L828.45 321.45L827.01 322.13L825.91 321.79L823.85 319.45L823.16 318.36L820.28 318.9L819.18 320.76L818.15 324.33L816.78 325.09L815.55 325.52L818.27 327.08Z"/><path d="M1434.9 75.6L1440 73.94L1440 76.67L1435.61 76.88L1434.9 75.6ZM916.4 174.4L914.58 176.77L910.7 177.43L906.73 181.56L910.36 185.36L909.97 188.05L914.34 192.76L914.34 192.76L911.95 194.38L911.26 195.39L909.49 195.12L906.74 192.69L905.62 192.56L903.11 191.63L901.88 189.99L898.15 189.15L895.72 189.78L895.02 189.04L889.58 187.12L883.69 186.47L880.31 185.79L879.82 186.26L874.72 182.88L870.16 181.37L866.7 179.02L869.61 178.38L872.93 175.04L870.69 173.45L876.59 171.82L876.48 170.95L872.89 171.59L873.02 169.81L875.08 168.7L878.95 168.4L879.58 167.07L878.7 164.86L880.32 162.77L880.28 161.6L874.38 160.29L872.04 160.34L869.57 158.46L866.5 159.1L861.42 157.69L861.51 156.9L860.09 155.17L856.9 154.98L856.57 153.73L857.57 152.92L855.01 150.66L850.86 151.05L849.65 150.85L848.64 151.75L847.14 151.59L847.14 151.59L846.16 149.03L845.22 147.7L845.99 147.33L849.22 147.47L850.77 146.59L849.62 145.53L846.93 144.82L847.17 144.1L845.54 143.37L843.03 140.75L843.89 139.67L843.5 137.8L839.59 136.84L837.49 137.32L836.92 136.33L832.71 135.32L831.42 132.96L831.08 131.02L829.15 130.1L830.87 128.83L829.68 125.1L832.53 122.8L831.92 122.1L831.92 122.1L836.47 119.89L832.28 117.99L832.28 117.99L840.84 112.88L844.56 110.57L846.06 108.53L840.14 105.79L841.78 103.18L838.18 100.21L840.87 96.78L836.22 92.22L839.91 89.21L833.78 86.54L834.37 83.74L837.6 83.37L844.4 81.77L844.4 81.77L848.53 80.38L855.1 82.79L866.06 83.75L881.17 88.27L884.24 90.17L884.5 92.83L880.06 94.94L873.53 96L855.67 92.96L852.74 93.47L859.26 96.4L859.51 98.26L859.78 102.34L864.93 103.56L868.05 104.6L868.57 102.66L866.16 100.94L868.7 99.43L878.37 101.92L881.74 100.94L879.05 98.01L888.37 94.1L892.06 94.33L895.8 95.72L898.13 92.97L894.79 90.59L896.75 88.2L893.81 85.72L905 87L907.29 89.24L902.22 89.73L902.25 91.96L905.4 93.33L911.58 92.46L912.56 89.91L920.91 88.01L934.87 84.57L937.89 84.77L933.94 87.19L938.91 87.61L941.77 86.25L949.27 86.13L955.21 84.48L959.77 86.89L964.31 84.24L960.12 81.92L962.2 80.6L974.02 81.81L979.55 83.06L994.05 87.63L996.72 85.54L992.66 83.42L992.54 82.57L987.72 82.18L989.04 80.29L986.9 77.16L986.78 75.88L994.16 72.26L996.79 68.63L999.76 67.84L1010.35 68.89L1011.18 71.12L1007.39 74.36L1009.88 75.64L1011.17 78.44L1010.26 83.92L1014.67 86.37L1012.95 89.04L1005.12 94.72L1009.69 95.31L1011.28 93.87L1015.68 92.84L1016.75 90.86L1020.21 88.96L1017.88 86.68L1019.74 84.04L1015.37 83.71L1014.41 81.49L1017.6 77.47L1012.4 74.21L1019.56 71.52L1018.64 68.67L1020.63 68.58L1022.73 70.8L1021.16 74.66L1025.44 75.39L1023.61 72.5L1030.31 70.93L1038.61 70.72L1046 73L1042.44 69.67L1042.04 65.41L1049 64.6L1058.62 64.78L1067.29 64.25L1064.04 62.16L1068.67 59.53L1073.26 59.42L1081.04 57.44L1091.6 56.91L1092.94 55.81L1103.44 55.44L1106.71 56.34L1115.69 54.21L1123.04 54.28L1124.14 52.55L1127.96 50.85L1137.41 49.21L1144.27 50.5L1138.82 51.49L1147.88 52.1L1148.96 54.08L1152.62 53.11L1164.31 53.16L1173.33 55.11L1176.54 56.61L1175.54 58.69L1171.12 59.87L1160.61 62.09L1157.6 63.28L1162.56 63.84L1168.48 64.85L1172.08 64.09L1174.12 66.66L1175.88 65.62L1182.27 64.99L1195.11 65.65L1196.08 67.52L1212.8 68.12L1213.03 65.06L1221.52 65.76L1227.91 65.74L1234.37 67.85L1236.21 70.41L1233.84 72.08L1238.86 75.23L1245.15 76.85L1249.01 72.65L1255.43 74.45L1262.25 73.38L1269.99 74.61L1272.94 73.49L1279.48 74.05L1276.59 70.34L1281.87 68.6L1318 71.2L1321.4 73.57L1331.88 76.63L1348.03 75.87L1355.99 76.53L1359.32 78.19L1358.83 81.11L1363.76 82.25L1369.12 81.43L1376.21 81.33L1383.76 82.11L1391.34 81.67L1398.31 85.22L1403.27 83.95L1400.03 81.39L1401.81 79.61L1414.58 80.73L1422.9 80.49L1434.4 82.4L1440 84.15L1440 100.08L1439.97 100.1L1434.83 101.86L1429.65 101.57L1433.25 103.7L1435.63 106.99L1437.48 108.07L1437.95 109.72L1436.91 110.78L1429.46 109.91L1418.28 112.92L1414.72 113.39L1408.6 116.2L1402.79 118.66L1401.32 120.47L1395.6 117.71L1385.18 120.85L1383.36 119.36L1379.51 121.07L1374.16 120.53L1372.87 123.16L1368.07 127.03L1368.21 128.64L1372.77 129.54L1372.23 135.36L1368.52 135.51L1366.81 138.86L1368.47 140.58L1361.48 142.62L1360.09 147.19L1354.12 148.17L1352.92 152.23L1347.16 155.96L1345.68 153.2L1343.97 147.36L1341.73 138.48L1343.66 132.93L1347.03 130.54L1347.24 128.67L1353.46 127.78L1360.6 122.74L1367.49 118.63L1374.68 115.44L1377.89 109.8L1373.03 110.13L1370.63 113.43L1360.49 117.82L1357.21 112.9L1346.88 114.26L1336.87 120.97L1340.17 123.42L1331.25 124.46L1325.06 124.88L1325.35 121.98L1319.13 121.38L1314.18 123.34L1301.95 122.65L1288.79 123.84L1275.83 131.65L1260.5 141.08L1266.81 141.59L1268.77 144.09L1272.66 144.98L1275.22 142.98L1279.61 143.24L1285.38 147.64L1285.52 151.04L1282.39 155.04L1282.05 159.82L1280.25 166.21L1274.22 172L1272.88 174.77L1267.45 179.43L1262.06 184.04L1259.48 186.41L1254.15 188.75L1251.63 188.81L1249.11 186.86L1243.74 189.79L1243.12 191.12L1243.12 191.12L1243.12 191.12L1243.12 191.12L1242.56 190.42L1242.56 190.42L1242.54 188.39L1244.58 188.28L1245.15 183.55L1244.1 180.13L1247.53 178.72L1252.39 179.42L1255.08 175.53L1256.45 171.15L1258 169.69L1260.11 166.09L1253.49 167.27L1250.03 168.84L1243.95 168.84L1242.33 165.08L1237.59 162.24L1230.63 160.96L1229.15 157.04L1227.76 154.58L1226.26 152.86L1223.79 148.83L1220.27 147.36L1214.29 146.16L1208.98 146.27L1204.01 146.99L1200.71 148.98L1202.9 149.94L1202.95 152.14L1200.73 153.43L1197.12 157.67L1197.15 159.43L1191.52 161.96L1186.72 160.45L1181.94 160.78L1179.85 159.44L1177.45 159.01L1171.59 161.83L1166.32 162.49L1162.65 163.48L1157.61 162.83L1153.9 162.87L1151.47 160.83L1147.56 158.9L1143.55 158.38L1138.49 158.9L1134.71 159.64L1129.02 157.96L1128.26 154.96L1123.56 153.93L1119.93 153.46L1115.45 151.81L1111.3 155.96L1112.93 158.31L1109.04 161.1L1103.26 160.09L1099.26 159.95L1096.59 158.08L1092.42 158.02L1088.94 156.79L1082.85 158.67L1075.22 162.12L1071.01 162.81L1069.44 163.14L1067.32 160.69L1062.17 161.23L1060.46 159.53L1057.67 158.75L1055.74 156.44L1053.53 155.72L1047.78 156.75L1042.27 154.45L1040.14 156.54L1031.2 146.38L1026.1 143.29L1027.56 142.04L1017.54 145.81L1013.7 146.04L1014.03 143.86L1008.9 142.49L1004.72 143.47L1003.46 139.32L996.27 138.46L992.68 140.12L982.67 141.59L980.71 142.58L965.75 143.97L963.91 145.34L966.8 148.08L962.96 149.12L963.71 150.21L959.87 152.16L966.35 154.91L965.35 156.8L959.73 156.63L958.57 157.82L953.45 155.75L947.11 155.83L942.87 157.51L938.13 155.9L929.31 153.13L923.07 153.23L914.81 157.58L914.31 160.5L910.2 158.18L907.01 162.58L908.17 163.39L905.87 166.42L909.26 169.14L912.23 169.02L914.78 171.7L914.37 173.76L916.4 174.4ZM1095.11 35.9L1103.76 35L1111.54 37.01L1120.75 40.88L1119.76 44.48L1111.03 44.98L1099.89 43.82L1093.25 42.29L1090.18 39.42L1084.72 38.63L1095.11 35.9ZM1131.35 42.87L1141.49 45.15L1140.3 46.77L1117.75 48.32L1125.06 43.06L1128.35 42.61L1131.35 42.87ZM1275.32 55.45L1285.89 55.63L1300.35 57.75L1297.2 60.72L1282.46 60.61L1275.82 61.55L1267.9 58.95L1270.05 56.2L1275.32 55.45ZM1312.89 58.62L1322.93 59.66L1318.3 61.24L1311.91 60.89L1304.48 59.31L1305.43 58.01L1312.89 58.62ZM1279.45 66.52L1283.25 64.94L1288.25 64.57L1293.93 66.1L1294.42 67.15L1288.35 67.18L1280.15 66.73L1279.45 66.52ZM899.39 37.64L907.2 36.91L913.27 36.86L914.09 37.94L916.39 36.98L920.16 36.32L926.09 37.2L924.54 37.81L919.17 38.34L915.58 38.64L915.02 39.3L910.34 39.96L906.01 39.01L908.29 37.76L899.39 37.64ZM810.92 142.69L803.57 142.75L798.64 142.3L799.55 140.54L805.07 139.24L809.26 139.94L811.03 140.57L810.6 141.67L810.92 142.69ZM934.03 65L943.61 61.49L942.53 59.67L951.47 57.56L964.68 54.99L977.99 54.24L984.84 52.76L992.63 52.24L995.41 53.82L992.72 55.07L978.55 57.05L966.33 58.96L953.91 62.76L947.95 66.67L941.68 70.51L942.49 73.84L950.14 77.12L947.78 77.47L934.71 76.95L933.65 75.17L926.41 74.1L925.82 71.94L929.91 71.08L929.78 68.9L937.71 65.49L934.03 65ZM1291.66 145.18L1293.04 149.04L1292.94 152.97L1294.59 157.01L1298.62 164.09L1292.7 162.77L1290.23 168.55L1294.13 172.65L1294.02 175.45L1290.99 173.04L1288.37 176.13L1287.63 172.78L1288.07 168.88L1287.62 164.56L1288.54 161.54L1288.72 156.19L1286.38 152.26L1286.73 146.79L1290.43 144.95L1288.84 143.1L1290.62 142.54L1291.66 145.18ZM20.29 91.18L19.94 93.66L22.64 94.66L21.71 91.75L32.57 92.35L40.4 96.09L36.44 97.83L29.88 98.25L29.78 102.16L28.18 102.99L24.43 102.87L21.38 101.48L16.07 100.31L15.17 98.57L11.11 97.92L6.56 98.44L4.39 97.04L5.26 95.55L0.46 96.5L2.27 98.38L0 100.08L0 84.15L9.8 87.2L20.29 91.18ZM5.22 76.43L0 76.67L0 73.94L0.51 73.77L3.9 73.78L9.69 74.92L9.35 75.47L5.22 76.43ZM853.74 176.11L854.8 175.12L857.64 175.98L858.93 176.14L859.45 176.93L860.05 177.05L860.08 177.4L862.04 178.36L866.12 178.12L865.34 179.55L860.96 180.24L855.53 182.55L853.31 181.74L854.19 179.86L849.82 178.69L850.52 177.92L854.35 176.59L853.74 176.11Z"/><path d="M862.88 229.16L862.18 230.42L860.74 229.87L859.9 232.53L860.9 232.98L859.88 233.53L859.71 234.59L861.59 234.04L861.68 235.6L859.69 241.99L859.29 240.96L857.06 235.12L857.06 235.12L857.06 235.12L858.23 233.8L857.95 233.58L859.01 231.71L859.82 228.69L860.39 227.68L860.5 227.64L861.84 227.64L862.21 226.94L863.28 226.89L863.35 228.53L862.8 229.14L862.88 229.16Z"/><path d="M863.28 226.89L862.21 226.94L861.84 227.64L860.5 227.64L861.93 224.38L863.92 221.56L863.99 221.42L865.79 221.62L866.45 223.19L864.27 224.7L863.28 226.89Z"/><path d="M861.59 234.04L859.71 234.59L859.88 233.53L860.9 232.98L859.9 232.53L860.74 229.87L862.18 230.42L862.18 232.87L861.59 234.04Z"/><path d="M862.18 230.42L862.88 229.16L867.34 230.75L875.17 226.49L876.78 231.36L876.02 231.96L868.01 233.97L872 237.97L870.67 238.65L870.01 239.98L866.96 240.54L866 241.98L864.28 243.21L859.82 242.57L859.69 241.99L861.68 235.6L861.59 234.04L862.18 232.87L862.18 230.42Z"/><path d="M926.32 263.02L927.03 262.82L927.18 263.92L930.31 263.29L933.62 263.39L936.03 263.51L938.77 260.81L941.76 258.24L944.28 255.78L945.04 257.14L945.59 260.3L943.54 260.32L943.22 262.92L943.92 263.48L942.11 264.27L942.1 265.9L940.94 267.56L940.83 269.17L940.03 270.01L928 268L926.47 263.94L926.32 263.02Z"/><path d="M923.24 260.98L922.98 258.07L924.05 255.97L925.15 255.54L926.36 256.8L926.43 259.14L925.56 261.49L924.45 261.77L923.24 260.98Z"/><path d="M911.9 240.1L912.73 241.86L912.38 242.77L913.66 245.79L910.84 245.9L909.84 243.99L906.27 243.6L909.21 239.76L911.9 240.1Z"/><path d="M876.78 231.36L875.17 226.49L884.02 222.32L885.54 217.49L885.16 214.56L887.35 213.58L889.4 211.08L891.12 210.46L895.77 210.98L897.17 211.99L899.09 211.32L901.68 216.09L904.31 217.29L904.61 219.63L902.59 221.01L901.67 224.13L904.44 227.93L909.34 230.12L911.4 233.16L910.74 236.06L912.02 236.06L912.06 238.19L914.27 240.29L911.9 240.1L909.21 239.76L906.27 243.6L898.84 243.28L887.56 235.24L881.6 232.44L876.78 231.36Z"/><path d="M940.83 269.17L940.94 267.56L942.1 265.9L942.11 264.27L943.92 263.48L943.22 262.92L943.54 260.32L945.59 260.3L947.38 263.03L949.61 264.49L952.55 265.01L954.92 265.74L956.72 268.03L957.8 269.36L959.23 269.87L959.22 270.76L957.77 273.14L957.13 274.26L955.44 275.54L953.95 278.28L952.14 278.07L951.31 279.03L950.66 281.06L951.15 283.73L950.78 284.22L948.94 284.21L946.44 285.7L946.05 287.65L945.13 288.5L942.65 288.46L941.08 289.47L941.1 291.09L939.16 292.2L936.96 291.82L934.28 293.17L932.43 293.4L931.13 290.6L928 284L940 280L942.67 272L940.83 269.17ZM945.04 257.14L944.28 255.78L945.45 254.42L945.94 254.76L945.57 256.42L945.04 257.14Z"/><path d="M1109.31 246.95L1109.61 248.47L1108.21 249.2L1108.54 251.66L1105.68 250.94L1100.5 253.71L1100.62 255.99L1098.41 259.35L1098.21 261.3L1096.43 264.6L1093.3 263.69L1093.15 267.83L1092.24 269.19L1092.66 270.89L1090.69 271.84L1088.58 265.49L1087.48 265.5L1086.83 268.06L1084.64 265.99L1085.87 263.71L1087.66 263.48L1089.5 260.09L1087.2 259.41L1083.49 259.47L1079.68 258.92L1079.33 256.14L1077.42 255.94L1074.25 254.21L1072.84 256.93L1075.73 259.05L1073.23 260.54L1072.34 261.99L1074.8 263.07L1074.12 265.48L1075.51 268.48L1076.13 271.78L1075.56 273.24L1072.83 273.19L1067.9 274.02L1068.13 277.03L1066 279.39L1060.24 282.09L1055.76 286.79L1052.76 289.32L1048.77 291.93L1048.76 293.77L1046.77 294.76L1043.17 296.19L1041.3 296.4L1040.1 299.45L1040.93 304.66L1041.15 307.97L1039.45 311.78L1039.43 318.57L1037.36 318.76L1035.54 321.82L1036.76 323.13L1033.11 324.27L1031.76 326.99L1030.16 328.14L1026.37 324.4L1024.52 318.8L1022.99 314.77L1021.58 312.88L1019.46 309.03L1018.47 304.03L1017.78 301.53L1014.14 296.04L1012.48 288.29L1011.28 283.17L1011.3 278.32L1010.52 274.58L1004.7 276.97L1001.88 276.49L996.66 271.64L998.58 270.2L997.4 268.63L992.71 265.23L995.37 262.56L1004.17 262.57L1003.38 259.14L1001.13 257.11L1000.68 254.03L998.06 252.24L1002.47 248.04L1007.11 248.35L1011.3 244.15L1013.8 240.09L1017.69 236.08L1017.62 233.23L1021.03 230.92L1017.81 228.94L1016.42 226.23L1015 222.73L1016.96 221L1023.03 221.98L1027.49 221.39L1031.35 218.02L1035.65 222.71L1035.24 225.98L1036.84 228.02L1036.7 230.06L1033.83 229.53L1034.96 233.94L1038.89 236.47L1044.45 239.27L1041.91 241.08L1040.35 244.82L1044.23 246.34L1048 248.3L1053.22 250.54L1058.7 251.06L1061.01 253.1L1064.1 253.48L1068.91 254.41L1072.24 254.34L1072.7 252.76L1072.17 250.22L1072.48 248.49L1074.92 247.65L1075.26 250.8L1075.34 251.6L1078.98 253.12L1081.49 252.5L1084.87 252.77L1088.13 252.65L1088.41 250.19L1086.79 248.91L1090.01 248.41L1093.65 245.44L1098.26 242.89L1101.62 243.87L1104.47 242.19L1106.35 244.68L1105 246.36L1109.31 246.95Z"/><path d="M1031.35 218.02L1027.49 221.39L1023.03 221.98L1016.96 221L1015 222.73L1016.42 226.23L1017.81 228.94L1021.03 230.92L1017.62 233.23L1017.69 236.08L1013.8 240.09L1011.3 244.15L1007.11 248.35L1002.47 248.04L998.06 252.24L1000.68 254.03L1001.13 257.11L1003.38 259.14L1004.17 262.57L995.37 262.56L992.71 265.23L989.77 264.22L988.58 261.35L985.49 258.3L978.12 259.05L971.62 259.13L965.99 259.69L967.5 255.04L973.27 252.97L972.94 251.13L971.02 250.48L970.91 246.96L967.09 245.2L965.48 242.79L963.5 240.68L970.2 242.73L974.2 242.13L976.59 242.64L977.4 241.76L980.19 242.11L985.39 240.45L985.53 237.04L987.76 234.78L990.73 234.79L991.17 233.67L994.23 233.15L995.71 233.52L997.27 232.39L997.05 229.99L998.75 227.58L1001.29 226.57L999.72 223.92L1003.53 224.04L1004.63 222.6L1004.46 221.07L1006.45 219.39L1006 217.4L1005.05 215.7L1007.39 213.96L1011.68 213.12L1016.27 212.66L1018.3 211.92L1020.63 211.47L1023.59 213.33L1024.77 216.41L1031.35 218.02Z"/><path d="M986.07 210.55L988.3 210.58L991.32 211.42L992.54 211.91L995.44 210.62L996.79 211.4L998.08 209.56L1000.47 209.65L1001.08 209.06L1001.51 207.45L1003.23 206.05L1005.39 206.96L1004.96 208.19L1006.17 208.38L1005.79 211.74L1007.38 213.05L1008.77 212.21L1010.55 211.81L1013.04 210.02L1015.79 210.31L1019.92 210.32L1020.63 211.47L1018.3 211.92L1016.27 212.66L1011.68 213.12L1007.39 213.96L1005.05 215.7L1006 217.4L1006.45 219.39L1004.46 221.07L1004.63 222.6L1003.53 224.04L999.72 223.92L1001.29 226.57L998.75 227.58L997.05 229.99L997.27 232.39L995.71 233.52L994.23 233.15L991.17 233.67L990.73 234.79L987.76 234.78L985.53 237.04L985.39 240.45L980.19 242.11L977.4 241.76L976.59 242.64L974.2 242.13L970.2 242.73L963.5 240.68L967.12 237.06L966.8 234.48L963.77 233.81L963.45 231.27L962.14 228.07L963.85 225.88L962.11 225.29L963.21 222.38L964.84 217.4L968.92 218.92L971.94 218.38L972.77 216.57L975.93 215.97L978.19 214.75L978.98 211.55L982.36 210.78L982.98 209.36L984.87 210.42L986.07 210.55Z"/><path d="M991.32 211.42L993.57 207.37L992.7 204.39L989.77 203.44L990.81 201.68L994.15 201.87L996.05 199.66L997.32 197.09L1002.67 196.16L1001.83 198.01L1002.41 199.13L1004.06 199.02L1002.59 200.26L998.24 199.59L997.86 201.89L1002.2 201.58L1007.14 202.88L1014.7 202.28L1015.72 205.98L1017.03 205.57L1019.46 206.48L1019.32 208.04L1019.92 210.32L1015.79 210.31L1013.04 210.02L1010.55 211.81L1008.77 212.21L1007.38 213.05L1005.79 211.74L1006.17 208.38L1004.96 208.19L1005.39 206.96L1003.23 206.05L1001.51 207.45L1001.08 209.06L1000.47 209.65L998.08 209.56L996.79 211.4L995.44 210.62L992.54 211.91L991.32 211.42Z"/><path d="M1003.85 190.94L1004.75 189.18L1007.38 188.62L1013.96 190L1014.58 187.63L1016.85 186.81L1022.55 188.49L1024 188.05L1030.63 188.16L1036.57 188.58L1038.57 190.01L1041.04 190.6L1040.48 191.5L1034.17 193.67L1032.75 195.26L1027.62 195.73L1026.11 198.29L1021.87 197.75L1019.11 198.53L1015.29 200.42L1015.84 201.36L1014.7 202.28L1007.14 202.88L1002.2 201.58L997.86 201.89L998.24 199.59L1002.59 200.26L1004.06 199.02L1007.1 199.42L1012.22 196.54L1007.48 194.43L1004.63 195.43L1001.68 193.92L1005.04 191.33L1003.85 190.94Z"/><path d="M930.01 192.87L931.78 191.54L936.32 190.7L939.02 191.82L941.82 194.96L943.87 194.77L948.39 194.71L947.73 192.7L951.15 191.32L954.52 188.99L959.91 191.11L960.33 194.3L961.86 195.12L966.19 194.93L967.53 195.66L969.5 199.78L974.07 202.55L976.68 204.43L980.86 206.39L986.18 208.1L986.07 210.55L984.87 210.42L982.98 209.36L982.36 210.78L978.98 211.55L978.19 214.75L975.93 215.97L972.77 216.57L971.94 218.38L968.92 218.92L964.84 217.4L964.49 214.03L961.51 213.89L956.94 210.35L953.74 209.91L949.32 207.88L946.48 207.51L944.72 208.26L942.05 208.14L939.2 210.43L935.69 211.2L934.94 208.38L935.52 204.19L932.4 202.84L933.43 200.1L930.78 199.87L931.66 196.49L935.43 197.48L938.95 196.2L936.03 193.8L934.89 191.51L931.67 192.53L931.26 195.46L930.01 192.87Z"/><path d="M914.27 240.29L912.06 238.19L912.02 236.06L910.74 236.06L911.4 233.16L909.34 230.12L904.44 227.93L901.67 224.13L902.59 221.01L904.61 219.63L904.31 217.29L901.68 216.09L899.09 211.32L899.09 211.32L896.9 208.11L897.69 206.87L896.44 202.29L899.18 201.15L899.81 202.66L901.83 204.5L904.57 205.04L906.02 204.92L910.74 201.97L912.24 201.67L913.42 202.84L912.04 204.82L914.54 206.92L915.53 206.72L916.8 209.67L920.59 210.5L923.37 212.51L929.06 213.2L935.3 212.14L935.69 211.2L939.2 210.43L942.05 208.14L944.72 208.26L946.48 207.51L949.32 207.88L953.74 209.91L956.94 210.35L961.51 213.89L964.49 214.03L964.84 217.4L963.21 222.38L962.11 225.29L963.85 225.88L962.14 228.07L963.45 231.27L963.77 233.81L966.8 234.48L967.12 237.06L963.5 240.68L965.48 242.79L967.09 245.2L970.91 246.96L971.02 250.48L972.94 251.13L973.27 252.97L967.5 255.04L965.99 259.69L958.46 258.48L954.1 257.56L949.59 257.04L947.88 252.14L945.97 251.43L942.89 252.14L938.86 254.08L933.97 252.75L929.93 249.68L926.08 248.54L923.41 244.74L920.46 239.41L918.31 240.06L915.77 238.73L914.27 240.29Z"/><path d="M862.88 229.16L862.8 229.14L863.35 228.53L863.28 226.89L864.27 224.7L866.45 223.19L865.79 221.62L863.99 221.42L863.62 218.36L864.6 216.71L865.67 215.84L866.74 214.96L866.96 212.73L868.27 213.51L872.67 212.4L874.8 213.15L878.09 213.14L882.69 211.63L884.85 211.7L889.4 211.08L887.35 213.58L885.16 214.56L885.54 217.49L884.02 222.32L875.17 226.49L867.34 230.75L862.88 229.16Z"/><path d="M906.02 204.92L904.57 205.04L902.94 202.72L902.96 202.1L901.19 202.11L900.01 201.04L899.18 201.15L897.6 199.98L894.63 198.99L895.01 197.04L894.33 195.63L899.89 195.01L900.72 196.06L902.24 196.75L901.44 197.75L903.57 199.13L902.44 200.4L904.14 201.49L905.93 202.14L906.02 204.92Z"/><path d="M832.71 135.32L836.92 136.33L837.49 137.32L839.59 136.84L843.5 137.8L843.89 139.67L843.03 140.75L845.54 143.37L847.17 144.1L846.93 144.82L849.62 145.53L850.77 146.59L849.22 147.47L845.99 147.33L845.22 147.7L846.16 149.03L847.14 151.59L847.14 151.59L843.71 151.83L842.48 152.71L842.22 154.72L840.63 154.34L837.02 154.53L835.97 153.59L834.47 154.29L832.97 153.71L829.82 153.63L825.35 152.67L821.31 152.36L818.21 152.45L816.02 153.53L814.11 153.69L814.03 151.91L812.8 150.05L815.2 149.24L815.22 147.64L814.11 146.12L813.94 144.35L817.8 144.38L822.15 142.87L823.07 140.61L826.35 139.33L825.98 137.54L828.41 136.87L832.71 135.32Z"/><path d="M847.14 151.59L848.64 151.75L849.65 150.85L850.86 151.05L855.01 150.66L857.57 152.92L856.57 153.73L856.9 154.98L860.09 155.17L861.51 156.9L861.42 157.69L866.5 159.1L869.57 158.46L872.04 160.34L874.38 160.29L880.28 161.6L880.32 162.77L878.7 164.86L879.58 167.07L878.95 168.4L875.08 168.7L873.02 169.81L872.89 171.59L869.7 171.91L867.04 173.21L863.29 173.42L859.85 174.91L860.05 177.05L859.45 176.93L858.93 176.14L857.64 175.98L854.8 175.12L853.74 176.11L853.19 175.68L846.98 174.67L846.7 173.18L842.99 173.67L841.51 175.87L838.41 178.83L836.6 178.14L834.72 178.78L832.93 178.05L833.94 177.61L834.64 176.24L835.73 174.96L835.45 174.25L836.29 173.93L836.68 174.48L839.04 174.6L840.1 174.3L839.35 173.9L839.64 173.3L838.24 172.29L837.66 170.61L836.2 169.96L836.49 168.6L834.68 167.53L833.04 167.38L830.09 166.13L827.43 166.53L826.48 167.12L824.79 167.12L823.78 168.05L820.83 168.44L819.47 169.05L817.61 168.07L815.04 168.06L812.57 167.61L810.84 168.47L810.56 167.4L808.34 166.31L809.12 164.7L810.23 163.66L811.11 163.89L810.07 162.09L813.71 158.77L815.69 158.3L816.12 157.18L814.11 153.69L816.02 153.53L818.21 152.45L821.31 152.36L825.35 152.67L829.82 153.63L832.97 153.71L834.47 154.29L835.97 153.59L837.02 154.53L840.63 154.34L842.22 154.72L842.48 152.71L843.71 151.83L847.14 151.59Z"/><path d="M826.48 167.12L827.43 166.53L830.09 166.13L833.04 167.38L834.68 167.53L836.49 168.6L836.2 169.96L837.66 170.61L838.24 172.29L839.64 173.3L839.35 173.9L840.1 174.3L839.04 174.6L836.68 174.48L836.29 173.93L835.45 174.25L835.73 174.96L834.64 176.24L833.94 177.61L832.93 178.05L832.22 176.22L832.64 174.51L832.51 172.76L830.2 170.38L828.94 168.69L827.7 167.51L826.48 167.12Z"/><path d="M832.93 178.05L834.72 178.78L836.6 178.14L838.41 178.83L838.51 179.86L836.57 180.72L835.35 180.34L834.23 185.17L831.88 184.75L828.97 183.3L824.26 184.23L822.28 185.25L816.4 185.04L813.33 184.41L811.78 184.7L810.63 183.06L809.9 182.36L810.82 181.69L809.84 181.19L808.58 182.09L806.25 180.92L805.93 179.28L803.5 178.33L803.05 177.06L800.88 175.49L804.09 174.74L806.51 172.02L808.4 169.31L810.84 168.47L812.57 167.61L815.04 168.06L817.61 168.07L819.47 169.05L820.83 168.44L823.78 168.05L824.79 167.12L826.48 167.12L827.7 167.51L828.94 168.69L830.2 170.38L832.51 172.76L832.64 174.51L832.22 176.22L832.93 178.05Z"/><path d="M810.63 183.06L811.78 184.7L813.33 184.41L816.4 185.04L822.28 185.25L824.26 184.23L828.97 183.3L831.88 184.75L834.23 185.17L832.16 186.83L830.7 189.69L831.99 191.97L828.54 191.43L824.47 192.69L824.42 194.68L820.79 195.06L817.97 193.66L814.77 194.76L811.81 194.65L811.53 192L809.52 190.72L810.18 190.15L809.75 189.68L810.42 188.41L811.94 187.16L810 185.43L809.64 183.97L810.63 183.06Z"/><path d="M899.09 211.32L897.17 211.99L895.77 210.98L891.12 210.46L889.4 211.08L884.85 211.7L882.69 211.63L878.09 213.14L874.8 213.15L872.67 212.4L868.27 213.51L866.96 212.73L866.74 214.96L865.67 215.84L864.6 216.71L863.13 214.9L864.64 213.4L862.2 213.74L858.86 212.82L856.11 215.12L850.04 215.57L846.8 213.42L842.49 213.29L841.56 214.95L838.8 215.42L834.93 213.29L830.56 213.36L828.2 209.39L825.27 207.17L827.22 204.06L824.68 202.15L829.12 198.32L835.28 198.16L836.96 195.12L844.58 195.65L849.39 193.05L854.05 191.92L860.67 191.84L867.65 194.66L873.39 196.21L878.05 195.59L881.49 195.95L886.22 193.86L890.48 193.67L894.33 195.63L895.01 197.04L894.63 198.99L897.6 199.98L899.18 201.15L896.44 202.29L897.69 206.87L896.9 208.11L899.09 211.32L899.09 211.32ZM824.47 192.69L828.54 191.43L831.99 191.97L832.46 193.51L835.95 194.8L835.23 195.78L830.48 196L828.77 197.24L825.43 199.39L824.17 197.53L824.23 196.7L825.18 196.25L826.42 193.75L824.47 192.69Z"/><path d="M1157.9 287.21L1154.62 285.97L1154.5 282.53L1156.48 280.72L1160.85 279.59L1163.15 279.69L1164.04 281.22L1162.28 282.98L1161.36 285.29L1157.9 287.21ZM1041.04 190.6L1040.72 188.32L1043.46 187.28L1039.86 180.33L1047.79 178.73L1049.84 177.84L1052.72 170.68L1060.66 172L1062.88 170.19L1063.07 166.18L1066.4 165.8L1069.44 163.14L1071.01 162.81L1072.06 165.6L1075.42 167.72L1081.12 169.23L1083.88 172.45L1082.34 177.12L1083.78 178.86L1088.54 179.54L1093.92 180.1L1098.76 182.59L1101.23 183.03L1103.05 186.72L1105.4 189.1L1109.81 189L1118.06 189.9L1123.38 189.34L1127.33 189.94L1133.25 192.37L1138.09 192.37L1139.86 193.61L1144.52 191.46L1150.98 190.07L1156.97 189.92L1161.65 188.52L1164.52 186.37L1167.32 185.03L1166.67 183.71L1165.39 182.17L1167.49 179.59L1169.74 179.95L1173.86 180.76L1177.84 178.64L1183.94 177.09L1186.87 174.45L1189.69 173.31L1195.5 172.78L1198.65 173.23L1199.09 171.81L1195.47 169.01L1192.26 167.73L1189.18 169.21L1185.24 168.59L1182.97 169.09L1181.94 167.46L1184.77 163.46L1186.72 160.45L1191.52 161.96L1197.15 159.43L1197.12 157.67L1200.73 153.43L1202.95 152.14L1202.9 149.94L1200.71 148.98L1204.01 146.99L1208.98 146.27L1214.29 146.16L1220.27 147.36L1223.79 148.83L1226.26 152.86L1227.76 154.58L1229.15 157.04L1230.63 160.96L1237.59 162.24L1242.33 165.08L1243.95 168.84L1250.03 168.84L1253.49 167.27L1260.11 166.09L1258 169.69L1256.45 171.15L1255.08 175.53L1252.39 179.42L1247.53 178.72L1244.1 180.13L1245.15 183.55L1244.58 188.28L1242.54 188.39L1242.56 190.42L1239.98 188.06L1238.39 190.3L1232.21 192.02L1232.83 194.13L1229.38 193.99L1227.48 192.73L1224.73 195.57L1220.32 197.72L1217.06 200.29L1211.47 201.45L1208.53 203.32L1204.22 204.41L1206.34 202.56L1205.51 201L1208.67 198.31L1206.56 196.21L1203.07 197.63L1198.56 200.41L1196.09 202.99L1192.17 203.18L1190.13 205.05L1192.24 207.75L1195.51 208.41L1195.65 210.21L1198.81 211.37L1203.29 208.52L1206.85 210.08L1209.43 210.18L1210.08 212.28L1204.42 213.39L1202.55 215.55L1198.66 217.56L1196.6 220.36L1200.91 222.56L1202.48 226.49L1204.92 230.16L1207.63 233.23L1207.57 236.2L1205.06 237.29L1206.01 239.43L1208.37 240.67L1207.75 243.93L1206.74 247.1L1204.5 247.46L1201.58 251.79L1198.34 257.04L1194.63 261.81L1189.13 265.5L1183.56 268.87L1179.06 269.33L1176.61 271.1L1175.23 269.81L1172.96 271.79L1167.37 273.8L1163.14 274.41L1161.78 278.64L1159.56 278.87L1158.51 275.97L1159.46 274.42L1154.09 273.14L1152.2 273.79L1148.17 272.75L1146.27 271.13L1146.9 268.82L1143.24 268.09L1141.32 266.59L1137.91 268.72L1134.02 269.18L1130.83 269.16L1128.68 270.14L1126.61 270.73L1127.21 275.3L1125.08 275.19L1124.72 274.25L1124.6 272.6L1121.67 273.76L1119.93 273.03L1116.96 271.53L1118.13 268.2L1115.59 267.43L1114.64 263.75L1110.42 264.41L1110.9 259.67L1114.69 256.33L1114.85 253.03L1114.73 249.96L1112.98 249.01L1111.65 246.66L1109.31 246.95L1105 246.36L1106.35 244.68L1104.47 242.19L1101.62 243.87L1098.26 242.89L1093.65 245.44L1090.01 248.41L1086.79 248.91L1085.04 247.84L1082.92 247.74L1080.06 246.81L1077.9 247.83L1075.26 250.8L1074.92 247.65L1072.48 248.49L1067.82 248.1L1063.29 247.19L1060.05 245.43L1056.94 244.64L1055.6 242.72L1053.35 242.15L1049.31 239.54L1046.1 238.31L1044.45 239.27L1038.89 236.47L1034.96 233.94L1033.83 229.53L1036.7 230.06L1036.84 228.02L1035.24 225.98L1035.65 222.71L1031.35 218.02L1024.77 216.41L1023.59 213.33L1020.63 211.47L1019.92 210.32L1019.32 208.04L1019.46 206.48L1017.03 205.57L1015.72 205.98L1014.7 202.28L1015.84 201.36L1015.29 200.42L1019.11 198.53L1021.87 197.75L1026.11 198.29L1027.62 195.73L1032.75 195.26L1034.17 193.67L1040.48 191.5L1041.04 190.6Z"/><path d="M905.62 192.56L906.74 192.69L909.49 195.12L911.26 195.39L911.95 194.38L914.34 192.76L916.44 194.87L918.48 197.71L920.34 197.9L921.57 198.97L918.28 199.3L917.58 202.4L916.89 203.8L915.43 204.74L915.53 206.72L914.54 206.92L912.04 204.82L913.42 202.84L912.24 201.67L910.74 201.97L906.02 204.92L905.93 202.14L904.14 201.49L902.44 200.4L903.57 199.13L901.44 197.75L902.24 196.75L900.72 196.06L899.89 195.01L900.87 194.35L903.85 195.5L906.01 195.74L906.55 195.27L904.58 193.11L905.62 192.56ZM904.57 205.04L901.83 204.5L899.81 202.66L899.18 201.15L900.01 201.04L901.19 202.11L902.96 202.1L902.94 202.72L904.57 205.04Z"/><path d="M879.82 186.26L880.31 185.79L883.69 186.47L889.58 187.12L895.02 189.04L895.72 189.78L898.15 189.15L901.88 189.99L903.11 191.63L905.62 192.56L904.58 193.11L906.55 195.27L906.01 195.74L903.85 195.5L900.87 194.35L899.89 195.01L894.33 195.63L890.48 193.67L886.22 193.86L886.81 192.15L885.81 189.42L883.5 187.95L881.29 187.49L879.82 186.26Z"/><path d="M865.72 302.31L865.29 300.71L867.02 294.83L867.41 292.17L868.67 290.95L871.62 290.29L873.64 288.01L875.96 292.64L877.06 296.31L879.26 298.26L884.72 302.04L886.94 304.32L889.11 306.62L890.36 308L892.32 309.2L891.12 310.18L889.41 309.83L888.04 308.54L886.39 306.19L884.62 304.91L883.59 303.53L880.11 301.92L877.36 301.87L876.4 301.04L874.05 301.98L871.62 300.16L870.38 303.15L865.72 302.31Z"/><path d="M928 284L931.13 290.6L932.43 293.4L929.54 294.47L928.77 296.25L928.67 297.61L924.69 299.3L918.3 301.16L914.72 303.99L912.96 304.21L911.76 303.97L909.42 305.63L906.87 306.4L903.51 306.61L902.5 306.84L901.63 307.89L900.58 308.18L899.96 309.2L897.98 309.11L896.7 309.66L893.93 309.45L892.89 307.12L893.01 304.93L892.35 303.75L891.57 300.79L890.42 299.15L891.22 298.95L890.81 297.12L891.29 296.35L891.12 294.61L892.87 293.33L892.46 291.65L893.52 289.68L895.17 290.72L896.25 290.36L900.87 290.27L901.6 290.67L905.47 291.07L907 290.87L908 292.2L909.87 291.53L912.73 287.33L916.47 285.53L928 284Z"/><path d="M859.82 242.57L864.28 243.21L866 241.98L866.96 240.54L870.01 239.98L870.67 238.65L872 237.97L868.01 233.97L876.02 231.96L876.78 231.36L881.6 232.44L887.56 235.24L898.84 243.28L906.27 243.6L909.84 243.99L910.84 245.9L913.66 245.79L915.23 249.24L917.2 250.16L917.88 251.56L920.61 253.24L920.85 254.89L920.45 256.22L920.96 257.57L922.11 258.69L922.64 260L923.24 260.98L924.45 261.77L925.56 261.49L926.32 263.02L926.47 263.94L928 268L940.03 270.01L940.83 269.17L942.67 272L940 280L928 284L916.47 285.53L912.73 287.33L909.87 291.53L908 292.2L907 290.87L905.47 291.07L901.6 290.67L900.87 290.27L896.25 290.36L895.17 290.72L893.52 289.68L892.46 291.65L892.87 293.33L891.12 294.61L890.6 292.9L889.39 291.7L889.08 290.1L887.02 288.67L884.89 285.31L883.76 282.05L880.99 279.3L879.21 278.64L876.56 274.83L876.09 272.05L876.27 269.68L873.97 265.25L872.1 263.69L869.93 262.86L868.62 260.57L868.84 259.66L867.73 257.59L866.56 256.7L865 253.72L862.56 250.49L860.52 247.75L858.53 247.77L859.15 245.57L859.33 244.17L859.82 242.57Z"/><path d="M850.93 219.44L851.21 219.42L851.79 218.45L854.67 218.51L858.31 217.31L855.6 219.02L855.89 219.77L855.47 219.63L854.7 219.93L854.1 219.85L853.9 220L853.82 219.59L853.54 219.35L852.76 219.31L851.68 219.65L850.93 219.44Z"/><path d="M850.93 219.44L851.68 219.65L852.76 219.31L853.54 219.35L853.82 219.59L853.9 220L854.1 219.85L854.7 219.93L855.47 219.63L855.89 219.77L856.02 220.09L851.92 221.71L849.96 221.19L849.03 219.59L850.93 219.44Z"/><path d="M867.46 272L851.6 272L836.08 272L820 272L820 257.27L820 243.05L818.8 239.82L819.83 237.35L819.21 235.64L820.66 233.72L825.98 233.66L829.83 234.71L833.8 235.9L835.65 236.52L838.73 235.25L840.38 234.11L843.91 233.78L846.75 234.28L847.84 236.27L848.77 234.96L851.98 235.9L855.09 236.13L857.06 235.12L857.06 235.12L859.29 240.96L859.69 241.99L858.57 243.6L857.71 246.62L856.62 248.71L855.69 249.41L854.35 248.11L852.55 246.33L849.69 240.6L849.28 240.96L850.94 245.18L853.4 249.2L856.42 255.43L857.9 257.61L859.18 259.87L862.77 264.29L861.97 264.99L862.1 267.59L866.76 271.18L867.46 272Z"/><path d="M911.16 327.99L899.85 339.99L894.64 340.17L891.08 342.99L888.51 343.06L887.42 344.32L884.69 344.32L883.07 342.97L879.42 344.64L878.24 346.31L875.57 346L874.68 345.54L873.75 345.65L872.48 345.61L867.42 342.21L864.64 342.21L863.27 340.89L863.27 338.65L861.19 337.98L858.83 333.62L857 332.7L856.3 331.1L854.27 329.15L851.82 328.86L853.18 326.58L855.3 326.48L855.9 325.26L855.85 321.67L857.03 317.48L858.92 316.36L859.33 314.72L861.04 311.67L863.45 309.69L865.08 305.75L865.72 302.31L870.38 303.15L871.62 300.16L874.05 301.98L876.4 301.04L877.36 301.87L880.11 301.92L883.59 303.53L884.62 304.91L886.39 306.19L888.04 308.54L889.41 309.83L888 311.6L886.65 313.48L886.96 314.58L887.02 315.8L889.26 315.86L890.22 315.58L891.11 316.29L890.24 317.71L891.71 319.91L893.19 321.84L894.72 323.27L907.79 328.01L911.16 327.99Z"/><path d="M889.41 309.83L891.12 310.18L892.32 309.2L893.27 310.44L893.15 312.1L890.86 313.06L892.58 314.15L891.11 316.29L890.22 315.58L889.26 315.86L887.02 315.8L886.96 314.58L886.65 313.48L888 311.6L889.41 309.83Z"/><path d="M915.79 314.36L915.79 314.36L915.77 314.42L915.75 316.07L915.75 320.11L915.75 322.19L913.95 324.65L911.16 327.99L907.79 328.01L894.72 323.27L893.19 321.84L891.71 319.91L890.24 317.71L891.11 316.29L892.58 314.15L893.88 314.89L894.67 316.54L896.47 318.22L898.46 318.23L902.23 317.21L906.58 316.73L910.1 315.49L912.09 315.23L913.52 314.5L915.79 314.36L915.79 314.36Z"/><path d="M843.34 345.96L839.81 343.31L838.86 341.6L836.64 342.44L834.79 342.18L833.72 342.85L831.92 342.37L829.5 339.06L828.85 337.8L825.86 336.21L824.85 333.81L823.19 332.08L820.5 330L820.46 328.7L818.27 327.08L815.55 325.52L816.78 325.09L818.15 324.33L819.18 320.76L820.28 318.9L823.16 318.36L823.85 319.45L825.91 321.79L827.01 322.13L828.45 321.45L831.33 321.58L831.88 322.41L835.87 322.41L836 321.58L838.06 320.83L838.48 319.66L839.99 318.84L843.35 321.17L845.41 320.76L847.4 317.87L849.6 315.68L849.26 313.27L848.3 312.11L850.7 311.9L850.97 311.01L852.83 311.28L852.35 314.24L852.83 317.12L854.89 318.7L855.37 320.07L855.3 322.06L855.85 322.14L855.9 325.26L855.3 326.48L853.18 326.58L851.82 328.86L854.27 329.15L856.3 331.1L857 332.7L858.83 333.62L861.19 337.98L858.48 340.61L856.02 343L853.56 344.84L850.75 344.83L847.53 345.77L844.98 344.87L843.34 345.96Z"/></g>
<path d="M914.27 240.29L912.06 238.19L912.02 236.06L910.74 236.06L911.4 233.16L909.34 230.12L904.44 227.93L901.67 224.13L902.59 221.01L904.61 219.63L904.31 217.29L901.68 216.09L899.09 211.32L899.09 211.32L896.9 208.11L897.69 206.87L896.44 202.29L899.18 201.15L899.81 202.66L901.83 204.5L904.57 205.04L906.02 204.92L910.74 201.97L912.24 201.67L913.42 202.84L912.04 204.82L914.54 206.92L915.53 206.72L916.8 209.67L920.59 210.5L923.37 212.51L929.06 213.2L935.3 212.14L935.69 211.2L939.2 210.43L942.05 208.14L944.72 208.26L946.48 207.51L949.32 207.88L953.74 209.91L956.94 210.35L961.51 213.89L964.49 214.03L964.84 217.4L963.21 222.38L962.11 225.29L963.85 225.88L962.14 228.07L963.45 231.27L963.77 233.81L966.8 234.48L967.12 237.06L963.5 240.68L965.48 242.79L967.09 245.2L970.91 246.96L971.02 250.48L972.94 251.13L973.27 252.97L967.5 255.04L965.99 259.69L958.46 258.48L954.1 257.56L949.59 257.04L947.88 252.14L945.97 251.43L942.89 252.14L938.86 254.08L933.97 252.75L929.93 249.68L926.08 248.54L923.41 244.74L920.46 239.41L918.31 240.06L915.77 238.73L914.27 240.29Z" fill="#234fc7" stroke="#fff" stroke-width="2" stroke-linejoin="round" vector-effect="non-scaling-stroke"/>
<circle cx="939.73" cy="231.34" r="6" fill="#ee8c3f" opacity=".24"/>
<circle cx="939.73" cy="231.34" r="2.4" fill="#ee8c3f" stroke="#fff" stroke-width="1.8" vector-effect="non-scaling-stroke"/>
</svg>