<svg xmlns="http://www.w3.org/2000/svg" viewBox="688.6400000000001 366.975 210 170" preserveAspectRatio="xMidYMid slice" role="img" aria-label="Map showing Namibia">
<!-- Natural Earth public-domain map data -->
<g fill="#d5e4eb" stroke="#f8fbfc" stroke-width="1.1" stroke-linejoin="round" vector-effect="non-scaling-stroke"><path d="M1440 424.27L1440 426.22L1437.46 427.21L1434.9 428.05L1434.39 426.56L1436.39 425.74L1437.65 425.52L1440 424.27ZM1432.5 430.02L1433.49 429.36L1434.87 430.51L1434.21 432.6L1431.73 433.15L1429.53 432.66L1429.14 430.9L1430.68 429.52L1432.5 430.02ZM0.83 424.08L0.33 426.01L0 426.22L0 424.27L0.83 424.08Z"/><path d="M855.61 363.8L856.29 364.24L870.79 372.39L871.07 374.71L876.81 378.71L874.96 383.64L875.2 385.9L877.76 387.36L877.88 388.4L876.78 390.82L877.01 392.03L876.75 393.94L878.14 396.45L879.8 400.39L881.27 401.27L881.27 401.27L878.08 403.59L873.71 405.14L871.31 405.08L869.89 406.28L867.1 406.38L866.06 406.88L861.25 405.76L858.24 406.08L857.12 400.64L855.76 398.77L854.96 397.67L851.04 396.92L848.77 395.72L846.23 395.05L844.63 394.38L842.96 393.36L842.96 393.36L840.8 388.32L838.48 386.08L837.68 383.76L838.08 381.68L837.36 378L839.01 377.81L840.47 376.36L842.02 374.27L843.01 373.44L842.97 372.14L842.11 371.23L841.88 369.66L841.88 369.66L843.03 369.15L843.26 366.8L841.68 364.54L843.08 364.06L847.46 364.11L855.61 363.8Z"/><path d="M837.36 378L838.08 381.68L837.68 383.76L838.48 386.08L840.8 388.32L842.96 393.36L842.96 393.36L841.38 392.95L836.01 393.63L834.94 394.11L833.8 396.66L834.69 398.42L833.98 403.16L833.49 407.17L834.57 407.89L837.37 409.44L838.46 408.72L838.8 413.03L835.74 413L834.09 410.79L832.62 409.09L829.56 408.53L828.66 406.43L826.21 407.7L823.01 407.14L821.67 405.32L819.13 404.95L817.26 405.05L817.03 403.81L815.65 403.71L813.83 403.47L811.35 404.07L809.61 403.97L808.62 404.34L808.84 399.58L807.5 398.09L807.21 395.63L807.8 393.22L806.99 391.68L806.91 389.16L802.06 389.2L802.41 387.76L800.37 387.77L800.15 388.47L797.67 388.62L796.67 390.95L796.07 391.95L793.86 391.39L792.54 391.95L789.89 392.27L788.36 390.18L787.44 388.89L786.29 386.49L785.31 383.51L773.5 383.46L772.1 383.94L770.94 383.86L769.29 384.4L768.73 383.16L769.75 382.74L769.87 380.99L770.53 379.97L771.98 379.12L773.03 379.53L774.4 378L776.58 378.04L776.84 379.17L778.33 379.88L780.68 377.37L783.01 375.42L784.03 374.14L783.89 370.85L785.63 366.96L787.46 364.9L790.09 362.98L790.55 361.7L790.65 360.23L791.31 358.84L791.1 356.58L791.6 353.03L792.38 350.54L793.58 348.4L793.81 345.98L794.17 343.19L795.73 341.16L797.87 339.87L801.16 341.23L803.71 342.71L806.64 343.1L809.62 343.88L810.82 341.47L811.37 341.16L813.19 341.56L817.64 339.56L819.22 340.41L820.52 340.29L821.12 339.32L822.6 338.98L825.61 339.4L828.18 339.49L829.5 339.06L831.92 342.37L833.72 342.85L834.79 342.18L836.64 342.44L838.86 341.6L839.81 343.31L843.34 345.96L843.34 345.96L843.09 350.64L844.7 351.18L843.41 352.6L841.87 353.66L840.34 355.75L839.5 357.61L839.28 360.82L838.35 362.35L838.32 365.37L837.17 366.48L837.02 368.86L836.47 369.17L836.1 371.36L837.11 373.18L837.36 378Z"/><path d="M876.81 378.71L871.07 374.71L870.79 372.39L856.29 364.24L855.61 363.8L855.57 359.56L856.72 357.94L858.69 355.29L860.14 352.38L858.38 347.79L857.92 345.78L856.02 343L858.48 340.61L861.19 337.98L863.27 338.65L863.27 340.89L864.64 342.21L867.42 342.21L872.48 345.61L873.75 345.65L874.68 345.54L875.57 346L878.24 346.31L879.42 344.64L883.07 342.97L884.69 344.32L887.42 344.32L883.92 348.86L883.97 363.43L886.34 366.73L883.54 368.33L882.55 370L881.05 370.29L880.48 373.11L879.2 374.72L878.42 377.39L876.81 378.71Z"/><path d="M785.38 474.31L787.3 472.33L788.88 473.42L789.55 475.13L791.34 475.43L793.86 476.18L796.01 475.89L799.58 473.84L799.58 459.07L800.66 459.67L803.03 463.47L802.67 465.91L803.56 467.31L806.42 466.91L808.42 465.12L810.32 463.92L811.3 462L813.25 461.07L814.93 461.56L816.85 462.68L820.1 462.88L822.66 461.95L823.06 460.7L823.77 458.79L825.94 458.47L827.15 456.96L828.48 454.3L832.07 451.31L837.73 448.37L839.36 448.41L841.29 449.09L842.64 448.61L844.77 449.01L846.68 454.64L847.72 457.48L847.01 461.94L847.35 463.37L845.33 462.64L844.18 462.93L843.8 464.09L842.71 465.59L842.74 466.98L845.13 469.14L847.47 468.71L848.29 466.94L851.32 466.97L850.32 469.88L849.85 473.2L848.81 475.01L846.08 477.03L845.3 477.61L843.61 479.64L842.49 481.7L840.22 484.56L835.7 488.69L832.88 491.09L829.86 492.91L825.68 494.46L823.64 494.67L823.12 495.78L820.69 495.19L818.71 495.95L814.38 495.18L811.95 495.67L810.3 495.46L806.17 497.04L802.76 497.67L800.29 499.18L798.47 499.28L796.77 497.85L795.42 497.78L793.7 495.99L793.51 496.55L792.98 495.47L793 493.13L791.7 490.45L792.99 489.72L792.89 486.65L790.27 482.9L788.26 479.51L788.25 479.5L785.38 474.31ZM835.91 475.82L834.17 474.59L832.3 475.41L830.13 476.97L828 479.5L831 482.58L832.43 482.18L833.16 480.9L835.39 480.28L836.07 478.98L837.3 477.03L835.91 475.82Z"/><path d="M835.91 475.82L837.3 477.03L836.07 478.98L835.39 480.28L833.16 480.9L832.43 482.18L831 482.58L828 479.5L830.13 476.97L832.3 475.41L834.17 474.59L835.91 475.82Z"/><path d="M844.77 449.01L842.64 448.61L841.29 449.09L839.36 448.41L837.73 448.37L835.18 446.56L832.09 445.94L830.91 443.41L830.9 442L829.19 441.57L824.66 437.17L823.4 434.86L822.6 434.14L821.06 430.95L825.53 431.38L826.83 431.84L828.18 431.75L830.39 429.16L833.87 425.87L835.3 425.56L835.79 424.17L838.07 422.58L841.1 422.03L841.36 423.52L844.69 423.44L846.55 424.29L847.41 425.28L849.31 425.57L851.39 426.85L851.4 431.92L850.62 434.69L850.45 437.68L851.09 438.86L850.64 441.22L850.03 441.58L848.98 444.47L844.77 449.01Z"/><path d="M837.73 448.37L832.07 451.31L828.48 454.3L827.15 456.96L825.94 458.47L823.77 458.79L823.06 460.7L822.66 461.95L820.1 462.88L816.85 462.68L814.93 461.56L813.25 461.07L811.3 462L810.32 463.92L808.42 465.12L806.42 466.91L803.56 467.31L802.67 465.91L803.03 463.47L800.66 459.67L799.58 459.07L799.58 447.4L803.52 447.26L803.64 433.01L806.62 432.88L812.79 431.48L814.32 433.13L816.87 431.56L818.08 431.55L820.34 430.65L821.06 430.95L822.6 434.14L823.4 434.86L824.66 437.17L829.19 441.57L830.9 442L830.91 443.41L832.09 445.94L835.18 446.56L837.73 448.37Z"/><path d="M799.58 459.07L799.58 473.84L796.01 475.89L793.86 476.18L791.34 475.43L789.55 475.13L788.88 473.42L787.3 472.33L785.38 474.31L782.41 471.28L780.84 468.36L779.96 464.47L778.97 461.57L777.63 455.41L777.54 450.63L777.03 448.44L775.47 446.8L773.41 443.49L771.31 438.69L770.43 436.18L767.18 432.28L766.94 429.21L768.86 428.45L771.26 427.77L773.85 427.88L776.23 429.69L776.84 429.41L793.05 429.24L795.82 431.16L805.51 431.72L812.86 430.09L816.14 429.18L818.73 429.41L820.31 430.32L820.34 430.65L818.08 431.55L816.87 431.56L814.32 433.13L812.79 431.48L806.62 432.88L803.64 433.01L803.52 447.26L799.58 447.4L799.58 459.07Z"/><path d="M793.81 345.98L793.58 348.4L792.38 350.54L791.6 353.03L791.1 356.58L791.31 358.84L790.65 360.23L790.55 361.7L790.09 362.98L787.46 364.9L785.63 366.96L783.89 370.85L784.03 374.14L783.01 375.42L780.68 377.37L778.33 379.88L776.84 379.17L776.58 378.04L774.4 378L773.03 379.53L771.98 379.12L770.48 377.75L769.27 378.42L767.66 380.15L764.38 375.92L767.42 373.71L765.91 371.06L767.28 370.06L769.98 369.57L770.3 367.79L772.44 369.71L775.97 369.88L777.2 367.99L777.7 365.33L777.27 362.21L775.37 359.84L777.11 355.21L776.11 354.42L773.13 354.74L772.01 352.68L772.3 350.93L777.35 351.09L780.59 352.14L783.76 353.09L784.05 350.93L786.15 347.21L788.53 345.09L791.24 345.76L793.81 345.98Z"/><path d="M765.11 350.96L767.01 350.69L769.44 351.23L771.81 350.71L772.3 350.93L772.01 352.68L773.13 354.74L776.11 354.42L777.11 355.21L775.37 359.84L777.27 362.21L777.7 365.33L777.2 367.99L775.97 369.88L772.44 369.71L770.3 367.79L769.98 369.57L767.28 370.06L765.91 371.06L767.42 373.71L764.38 375.92L760.26 371.88L757.62 368.58L755.19 364.45L755.32 363.12L756.19 361.84L757.17 358.93L757.97 355.96L759.32 355.73L765.14 355.77L765.11 350.96Z"/><path d="M842.96 393.36L844.63 394.38L846.23 395.05L848.77 395.72L851.04 396.92L852.93 398.71L853.94 402.1L853.26 403.19L852.46 406.43L853.23 409.74L851.97 411.14L850.75 414.85L852.86 415.89L840.72 419.18L841.1 422.03L838.07 422.58L835.79 424.17L835.3 425.56L833.87 425.87L830.39 429.16L828.18 431.75L826.83 431.84L825.53 431.38L821.06 430.95L820.34 430.65L820.31 430.32L818.73 429.41L816.14 429.18L812.86 430.09L810.25 427.59L807.55 424.32L807.74 411.59L816.06 411.64L815.72 410.26L816.32 408.77L815.62 406.89L816.07 404.95L815.65 403.71L817.03 403.81L817.26 405.05L819.13 404.95L821.67 405.32L823.01 407.14L826.21 407.7L828.66 406.43L829.56 408.53L832.62 409.09L834.09 410.79L835.74 413L838.8 413.03L838.46 408.72L837.37 409.44L834.57 407.89L833.49 407.17L833.98 403.16L834.69 398.42L833.8 396.66L834.94 394.11L836.01 393.63L841.38 392.95L842.96 393.36Z"/><path d="M851.04 396.92L854.96 397.67L855.76 398.77L857.12 400.64L858.24 406.08L857.12 409.12L858.24 414.32L859.63 414.26L861.07 415.55L862.75 418.44L863.09 423.59L861.36 424.43L860.14 427.21L857.53 424.73L857.23 421.91L858.07 420.05L857.84 418.45L856.26 417.44L855.16 417.81L852.86 415.89L850.75 414.85L851.97 411.14L853.23 409.74L852.46 406.43L853.26 403.19L853.94 402.1L852.93 398.71L851.04 396.92Z"/><path d="M858.24 406.08L861.25 405.76L866.06 406.88L867.1 406.38L869.89 406.28L871.31 405.08L873.71 405.14L878.08 403.59L881.27 401.27L881.27 401.27L881.27 401.27L881.91 403.06L881.75 407.05L882.24 410.56L882.4 416.81L883.1 418.77L881.91 421.63L880.36 424.4L877.81 426.88L874.15 428.4L869.64 430.35L865.13 434.64L863.59 435.37L860.79 438.21L859.15 439.14L858.81 441.99L860.7 445.02L861.49 447.36L861.54 448.56L862.25 448.36L862.14 452.28L861.49 454.14L862.43 454.83L861.83 456.49L860.16 457.91L856.86 459.27L852.05 461.43L850.3 462.91L850.64 464.59L851.66 464.86L851.32 466.97L848.29 466.94L847.94 465.17L847.35 463.37L847.01 461.94L847.72 457.48L846.68 454.64L844.77 449.01L848.98 444.47L850.03 441.58L850.64 441.22L851.09 438.86L850.45 437.68L850.62 434.69L851.4 431.92L851.39 426.85L849.31 425.57L847.41 425.28L846.55 424.29L844.69 423.44L841.36 423.52L841.1 422.03L840.72 419.18L852.86 415.89L855.16 417.81L856.26 417.44L857.84 418.45L858.07 420.05L857.23 421.91L857.53 424.73L860.14 427.21L861.36 424.43L863.09 423.59L862.75 418.44L861.07 415.55L859.63 414.26L858.24 414.32L857.12 409.12L858.24 406.08Z"/><path d="M848.29 466.94L847.47 468.71L845.13 469.14L842.74 466.98L842.71 465.59L843.8 464.09L844.18 462.93L845.33 462.64L847.35 463.37L847.94 465.17L848.29 466.94Z"/><path d="M771.98 379.12L770.53 379.97L769.87 380.99L769.75 382.74L768.73 383.16L767.66 380.15L769.27 378.42L770.48 377.75L771.98 379.12ZM769.29 384.4L770.94 383.86L772.1 383.94L773.5 383.46L785.31 383.51L786.29 386.49L787.44 388.89L788.36 390.18L789.89 392.27L792.54 391.95L793.86 391.39L796.07 391.95L796.67 390.95L797.67 388.62L800.15 388.47L800.37 387.77L802.41 387.76L802.06 389.2L806.91 389.16L806.99 391.68L807.8 393.22L807.21 395.63L807.5 398.09L808.84 399.58L808.62 404.34L809.61 403.97L811.35 404.07L813.83 403.47L815.65 403.71L816.07 404.95L815.62 406.89L816.32 408.77L815.72 410.26L816.06 411.64L807.74 411.59L807.55 424.32L810.25 427.59L812.86 430.09L805.51 431.72L795.82 431.16L793.05 429.24L776.84 429.41L776.23 429.69L773.85 427.88L771.26 427.77L768.86 428.45L766.94 429.21L766.56 426.69L767.11 423.18L768.49 419.51L768.7 417.8L770 414.19L770.95 412.55L773.25 409.93L774.53 408.15L774.95 405.19L774.75 402.92L773.55 401.49L772.48 399.07L771.5 396.67L771.72 395.84L772.95 394.25L771.73 390.39L770.91 387.71L768.91 385.18L769.29 384.4Z"/><path d="M841.88 369.66L842.11 371.23L842.97 372.14L843.01 373.44L842.02 374.27L840.47 376.36L839.01 377.81L837.36 378L837.11 373.18L836.1 371.36L838.53 371.67L839.75 369.39L841.88 369.66Z"/><path d="M918.17 409.88L919.24 411.58L920.23 414.22L920.87 419.04L921.91 420.91L921.51 422.82L920.8 424L919.44 421.66L918.69 422.84L919.45 425.8L919.1 427.5L917.99 428.42L917.74 431.81L916.17 436.48L914.19 441.99L911.72 449.57L910.19 455.13L908.38 459.77L905.13 460.71L901.64 462.41L899.33 461.38L896.16 459.95L895.06 457.84L894.79 454.3L893.38 451.11L893.02 448.23L893.73 445.35L895.57 444.65L895.59 443.32L897.5 440.29L897.86 437.74L896.93 435.85L896.17 433.33L895.85 429.64L897.25 427.4L897.79 424.86L899.78 424.72L902.01 423.9L903.49 423.17L905.25 423.12L907.53 420.84L910.82 418.38L912.02 416.36L911.48 414.66L913.18 415.14L915.38 412.36L915.45 409.95L916.78 408.16L918.17 409.88Z"/><path d="M841.68 364.54L843.26 366.8L843.03 369.15L841.88 369.66L841.88 369.66L839.75 369.39L838.53 371.67L836.1 371.36L836.47 369.17L837.02 368.86L837.17 366.48L838.32 365.37L839.29 365.77L841.68 364.54Z"/></g>
<path d="M799.58 459.07L799.58 473.84L796.01 475.89L793.86 476.18L791.34 475.43L789.55 475.13L788.88 473.42L787.3 472.33L785.38 474.31L782.41 471.28L780.84 468.36L779.96 464.47L778.97 461.57L777.63 455.41L777.54 450.63L777.03 448.44L775.47 446.8L773.41 443.49L771.31 438.69L770.43 436.18L767.18 432.28L766.94 429.21L768.86 428.45L771.26 427.77L773.85 427.88L776.23 429.69L776.84 429.41L793.05 429.24L795.82 431.16L805.51 431.72L812.86 430.09L816.14 429.18L818.73 429.41L820.31 430.32L820.34 430.65L818.08 431.55L816.87 431.56L814.32 433.13L812.79 431.48L806.62 432.88L803.64 433.01L803.52 447.26L799.58 447.4L799.58 459.07Z" fill="#234fc7" stroke="#fff" stroke-width="2" stroke-linejoin="round" vector-effect="non-scaling-stroke"/>
<circle cx="788.43" cy="442.3" r="6" fill="#ee8c3f" opacity=".24"/>
<circle cx="788.43" cy="442.3" r="2.4" fill="#ee8c3f" stroke="#fff" stroke-width="1.8" vector-effect="non-scaling-stroke"/>
</svg>